<mxfile host="Electron" modified="2023-11-13T09:51:31.261Z" agent="Mozilla/5.0 (Windows NT 10.0; Win64; x64) AppleWebKit/537.36 (KHTML, like Gecko) draw.io/22.0.3 Chrome/114.0.5735.289 Electron/25.8.4 Safari/537.36" etag="URMQLgTlhQ0VG-ADFXb-" version="22.0.3" type="device">
  <diagram name="Page-1" id="kImuXyIzNoChx7QhpIxG">
    <mxGraphModel dx="1418" dy="837" grid="1" gridSize="10" guides="1" tooltips="1" connect="1" arrows="1" fold="1" page="1" pageScale="1" pageWidth="1169" pageHeight="827" math="0" shadow="0">
      <root>
        <mxCell id="0" />
        <mxCell id="1" parent="0" />
        <mxCell id="0Tcj5YBdf_HCPR3OIGFo-66" value="" style="rounded=0;whiteSpace=wrap;html=1;dashed=1;fillColor=none;fontFamily=Inconsolata;strokeColor=#7F7F7F;" parent="1" vertex="1">
          <mxGeometry x="80" y="40" width="1000" height="440" as="geometry" />
        </mxCell>
        <mxCell id="0Tcj5YBdf_HCPR3OIGFo-4" value="" style="rounded=0;whiteSpace=wrap;html=1;fontFamily=Inconsolata;fillColor=#E6E6E6;strokeWidth=2;strokeColor=#7F7F7F;" parent="1" vertex="1">
          <mxGeometry x="240" y="320" width="680" height="160" as="geometry" />
        </mxCell>
        <mxCell id="0Tcj5YBdf_HCPR3OIGFo-5" value="" style="rounded=0;whiteSpace=wrap;html=1;fontFamily=Inconsolata;fillColor=#E6E6E6;strokeWidth=2;strokeColor=#7F7F7F;" parent="1" vertex="1">
          <mxGeometry x="240" y="400" width="680" height="40" as="geometry" />
        </mxCell>
        <mxCell id="fBJCcDiIpj2miUv44zqa-1" value="" style="rounded=0;whiteSpace=wrap;html=1;fillColor=none;strokeWidth=2;dashed=1;" parent="1" vertex="1">
          <mxGeometry x="240" y="340" width="680" height="140" as="geometry" />
        </mxCell>
        <mxCell id="0Tcj5YBdf_HCPR3OIGFo-12" value="" style="shape=curlyBracket;whiteSpace=wrap;html=1;rounded=1;labelPosition=left;verticalLabelPosition=middle;align=right;verticalAlign=middle;direction=north;size=0.5;strokeColor=#000000;fontFamily=Inconsolata;" parent="1" vertex="1">
          <mxGeometry x="240" y="490" width="680" height="20" as="geometry" />
        </mxCell>
        <mxCell id="0Tcj5YBdf_HCPR3OIGFo-13" value="control_region_width" style="text;html=1;strokeColor=none;fillColor=none;align=center;verticalAlign=middle;whiteSpace=wrap;rounded=0;fontFamily=Inconsolata;" parent="1" vertex="1">
          <mxGeometry x="505" y="510" width="150" height="30" as="geometry" />
        </mxCell>
        <mxCell id="0Tcj5YBdf_HCPR3OIGFo-14" value="" style="shape=curlyBracket;whiteSpace=wrap;html=1;rounded=1;flipH=1;labelPosition=right;verticalLabelPosition=middle;align=left;verticalAlign=middle;fontFamily=Inconsolata;" parent="1" vertex="1">
          <mxGeometry x="1030" y="200" width="20" height="280" as="geometry" />
        </mxCell>
        <mxCell id="0Tcj5YBdf_HCPR3OIGFo-15" value="control_region_height" style="text;html=1;strokeColor=none;fillColor=none;align=left;verticalAlign=top;whiteSpace=wrap;rounded=0;fontFamily=Inconsolata;rotation=270;" parent="1" vertex="1">
          <mxGeometry x="940" y="380" width="150" height="30" as="geometry" />
        </mxCell>
        <mxCell id="0Tcj5YBdf_HCPR3OIGFo-16" style="edgeStyle=orthogonalEdgeStyle;rounded=0;orthogonalLoop=1;jettySize=auto;html=1;exitX=0.5;exitY=1;exitDx=0;exitDy=0;fontFamily=Inconsolata;" parent="1" edge="1">
          <mxGeometry relative="1" as="geometry">
            <mxPoint x="579.9999999999998" y="540" as="sourcePoint" />
            <mxPoint x="579.9999999999998" y="540" as="targetPoint" />
          </mxGeometry>
        </mxCell>
        <mxCell id="0Tcj5YBdf_HCPR3OIGFo-18" value="(control_region_x, control_region_y)" style="text;html=1;strokeColor=none;fillColor=none;align=left;verticalAlign=middle;whiteSpace=wrap;rounded=0;fontFamily=Inconsolata;rotation=270;" parent="1" vertex="1">
          <mxGeometry x="70" y="220" width="240" height="20" as="geometry" />
        </mxCell>
        <mxCell id="0Tcj5YBdf_HCPR3OIGFo-22" value="(in_game_exp_bar_x, in_game_exp_bar_y)" style="text;html=1;strokeColor=none;fillColor=none;align=left;verticalAlign=middle;whiteSpace=wrap;rounded=0;fontFamily=Inconsolata;rotation=270;" parent="1" vertex="1">
          <mxGeometry x="35" y="280" width="240" height="20" as="geometry" />
        </mxCell>
        <mxCell id="0Tcj5YBdf_HCPR3OIGFo-23" value="" style="shape=waypoint;sketch=0;fillStyle=solid;size=6;pointerEvents=1;points=[];fillColor=none;resizable=0;rotatable=0;perimeter=centerPerimeter;snapToPoint=1;strokeColor=#000000;strokeWidth=2;fontFamily=Inconsolata;" parent="1" vertex="1">
          <mxGeometry x="230" y="390" width="20" height="20" as="geometry" />
        </mxCell>
        <mxCell id="0Tcj5YBdf_HCPR3OIGFo-7" value="" style="rounded=0;whiteSpace=wrap;html=1;fillColor=#E6E6E6;strokeWidth=2;fontFamily=Inconsolata;strokeColor=#7F7F7F;" parent="1" vertex="1">
          <mxGeometry x="600" y="200" width="200" height="280" as="geometry" />
        </mxCell>
        <mxCell id="0Tcj5YBdf_HCPR3OIGFo-26" value="" style="verticalLabelPosition=bottom;verticalAlign=top;html=1;shape=mxgraph.basic.obtuse_triangle;dx=0;strokeWidth=2;strokeColor=#000000;fillColor=#E6E6E6;movable=1;resizable=1;rotatable=1;deletable=1;editable=1;locked=0;connectable=1;container=0;fontFamily=Inconsolata;" parent="1" vertex="1">
          <mxGeometry x="440" y="360" width="20" height="20" as="geometry" />
        </mxCell>
        <mxCell id="0Tcj5YBdf_HCPR3OIGFo-28" value="&lt;i&gt;cursor&lt;/i&gt;" style="text;html=1;strokeColor=none;fillColor=none;align=center;verticalAlign=middle;whiteSpace=wrap;rounded=0;fontFamily=Inconsolata;movable=1;resizable=1;rotatable=1;deletable=1;editable=1;locked=0;connectable=1;container=0;" parent="1" vertex="1">
          <mxGeometry x="420" y="370" width="60" height="30" as="geometry" />
        </mxCell>
        <mxCell id="0Tcj5YBdf_HCPR3OIGFo-34" value="" style="endArrow=none;html=1;rounded=0;fontFamily=Inconsolata;" parent="1" edge="1">
          <mxGeometry width="50" height="50" relative="1" as="geometry">
            <mxPoint x="440" y="310" as="sourcePoint" />
            <mxPoint x="440" y="200" as="targetPoint" />
          </mxGeometry>
        </mxCell>
        <mxCell id="0Tcj5YBdf_HCPR3OIGFo-25" value="" style="shape=waypoint;sketch=0;fillStyle=solid;size=6;pointerEvents=1;points=[];fillColor=none;resizable=0;rotatable=0;perimeter=centerPerimeter;snapToPoint=1;strokeColor=#000000;strokeWidth=2;fontFamily=Inconsolata;" parent="1" vertex="1">
          <mxGeometry x="590" y="190" width="20" height="20" as="geometry" />
        </mxCell>
        <mxCell id="0Tcj5YBdf_HCPR3OIGFo-36" value="" style="endArrow=classic;html=1;rounded=0;entryX=0;entryY=0.5;entryDx=0;entryDy=0;entryPerimeter=0;fontFamily=Inconsolata;" parent="1" edge="1">
          <mxGeometry width="50" height="50" relative="1" as="geometry">
            <mxPoint x="450" y="199.67" as="sourcePoint" />
            <mxPoint x="590" y="199.67" as="targetPoint" />
          </mxGeometry>
        </mxCell>
        <mxCell id="0Tcj5YBdf_HCPR3OIGFo-37" value="" style="shape=curlyBracket;whiteSpace=wrap;html=1;rounded=1;flipH=1;labelPosition=right;verticalLabelPosition=middle;align=left;verticalAlign=middle;fontFamily=Inconsolata;" parent="1" vertex="1">
          <mxGeometry x="930" y="400" width="20" height="40" as="geometry" />
        </mxCell>
        <mxCell id="0Tcj5YBdf_HCPR3OIGFo-38" value="in_game_exp_bar_height" style="text;html=1;strokeColor=none;fillColor=none;align=left;verticalAlign=top;whiteSpace=wrap;rounded=0;fontFamily=Inconsolata;rotation=270;" parent="1" vertex="1">
          <mxGeometry x="880" y="370" width="170" height="30" as="geometry" />
        </mxCell>
        <mxCell id="0Tcj5YBdf_HCPR3OIGFo-39" value="in_game_exp_bar_width" style="text;html=1;strokeColor=none;fillColor=none;align=center;verticalAlign=middle;whiteSpace=wrap;rounded=0;fontFamily=Inconsolata;" parent="1" vertex="1">
          <mxGeometry x="490" y="530" width="180" height="30" as="geometry" />
        </mxCell>
        <mxCell id="0Tcj5YBdf_HCPR3OIGFo-40" value="(cursor_x + in_game_exp_tooltip_x_offset, in_game_exp_tooltip_y)" style="text;html=1;strokeColor=none;fillColor=none;align=center;verticalAlign=middle;whiteSpace=wrap;rounded=0;fontFamily=Inconsolata;" parent="1" vertex="1">
          <mxGeometry x="590" y="170" width="400" height="30" as="geometry" />
        </mxCell>
        <mxCell id="0Tcj5YBdf_HCPR3OIGFo-43" value="in_game_exp_tooltip_width" style="text;html=1;strokeColor=none;fillColor=none;align=center;verticalAlign=middle;whiteSpace=wrap;rounded=0;fontFamily=Inconsolata;" parent="1" vertex="1">
          <mxGeometry x="622.5" y="580" width="155" height="30" as="geometry" />
        </mxCell>
        <mxCell id="0Tcj5YBdf_HCPR3OIGFo-44" value="(info_board_x,&amp;nbsp;info_board_bottom)" style="text;html=1;strokeColor=none;fillColor=none;align=left;verticalAlign=middle;whiteSpace=wrap;rounded=0;fontFamily=Inconsolata;rotation=270;" parent="1" vertex="1">
          <mxGeometry x="110" y="210" width="220" height="20" as="geometry" />
        </mxCell>
        <mxCell id="0Tcj5YBdf_HCPR3OIGFo-46" value="" style="shape=curlyBracket;whiteSpace=wrap;html=1;rounded=1;flipH=1;labelPosition=right;verticalLabelPosition=middle;align=left;verticalAlign=middle;fontFamily=Inconsolata;" parent="1" vertex="1">
          <mxGeometry x="980" y="340" width="20" height="140" as="geometry" />
        </mxCell>
        <mxCell id="0Tcj5YBdf_HCPR3OIGFo-49" value="" style="shape=curlyBracket;whiteSpace=wrap;html=1;rounded=1;labelPosition=left;verticalLabelPosition=middle;align=right;verticalAlign=middle;direction=north;size=0.5;strokeColor=#000000;fontFamily=Inconsolata;" parent="1" vertex="1">
          <mxGeometry x="600" y="560" width="200" height="20" as="geometry" />
        </mxCell>
        <mxCell id="0Tcj5YBdf_HCPR3OIGFo-51" value="" style="shape=waypoint;sketch=0;fillStyle=solid;size=6;pointerEvents=1;points=[];fillColor=none;resizable=0;rotatable=0;perimeter=centerPerimeter;snapToPoint=1;strokeColor=#000000;strokeWidth=2;fontFamily=Inconsolata;" parent="1" vertex="1">
          <mxGeometry x="230" y="330" width="20" height="20" as="geometry" />
        </mxCell>
        <mxCell id="0Tcj5YBdf_HCPR3OIGFo-52" value="" style="endArrow=none;html=1;rounded=0;fontFamily=Inconsolata;" parent="1" edge="1">
          <mxGeometry width="50" height="50" relative="1" as="geometry">
            <mxPoint x="210" y="340" as="sourcePoint" />
            <mxPoint x="230" y="340" as="targetPoint" />
          </mxGeometry>
        </mxCell>
        <mxCell id="0Tcj5YBdf_HCPR3OIGFo-54" value="" style="endArrow=none;html=1;rounded=0;fontFamily=Inconsolata;" parent="1" edge="1">
          <mxGeometry width="50" height="50" relative="1" as="geometry">
            <mxPoint x="170" y="400.28" as="sourcePoint" />
            <mxPoint x="230" y="400" as="targetPoint" />
          </mxGeometry>
        </mxCell>
        <mxCell id="0Tcj5YBdf_HCPR3OIGFo-55" value="" style="rounded=0;whiteSpace=wrap;html=1;fillColor=#E6E6E6;strokeWidth=2;fontFamily=Inconsolata;strokeColor=#7F7F7F;" parent="1" vertex="1">
          <mxGeometry x="240" y="160" width="160" height="160" as="geometry" />
        </mxCell>
        <mxCell id="0Tcj5YBdf_HCPR3OIGFo-17" value="" style="shape=waypoint;sketch=0;fillStyle=solid;size=6;pointerEvents=1;points=[];fillColor=none;resizable=0;rotatable=0;perimeter=centerPerimeter;snapToPoint=1;strokeColor=#000000;strokeWidth=2;fontFamily=Inconsolata;" parent="1" vertex="1">
          <mxGeometry x="230" y="310" width="20" height="20" as="geometry" />
        </mxCell>
        <mxCell id="0Tcj5YBdf_HCPR3OIGFo-56" value="info_board" style="text;html=1;strokeColor=none;fillColor=none;align=left;verticalAlign=top;whiteSpace=wrap;rounded=0;fontFamily=Inconsolata;fontStyle=2" parent="1" vertex="1">
          <mxGeometry x="240" y="160" width="60" height="30" as="geometry" />
        </mxCell>
        <mxCell id="0Tcj5YBdf_HCPR3OIGFo-57" value="in_game_exp_tooltip" style="text;html=1;strokeColor=none;fillColor=none;align=left;verticalAlign=top;whiteSpace=wrap;rounded=0;fontFamily=Inconsolata;fontStyle=2" parent="1" vertex="1">
          <mxGeometry x="600" y="200" width="146" height="30" as="geometry" />
        </mxCell>
        <mxCell id="0Tcj5YBdf_HCPR3OIGFo-58" value="in_game_exp_bar" style="text;html=1;strokeColor=none;fillColor=none;align=left;verticalAlign=top;whiteSpace=wrap;rounded=0;fontFamily=Inconsolata;fontStyle=2" parent="1" vertex="1">
          <mxGeometry x="240" y="400" width="146" height="30" as="geometry" />
        </mxCell>
        <mxCell id="0Tcj5YBdf_HCPR3OIGFo-59" value="" style="shape=curlyBracket;whiteSpace=wrap;html=1;rounded=1;labelPosition=left;verticalLabelPosition=middle;align=right;verticalAlign=middle;direction=north;size=0.5;strokeColor=#000000;fontFamily=Inconsolata;" parent="1" vertex="1">
          <mxGeometry x="80" y="610" width="1000" height="20" as="geometry" />
        </mxCell>
        <mxCell id="0Tcj5YBdf_HCPR3OIGFo-60" value="screen_width" style="text;html=1;strokeColor=none;fillColor=none;align=center;verticalAlign=middle;whiteSpace=wrap;rounded=0;fontFamily=Inconsolata;" parent="1" vertex="1">
          <mxGeometry x="507" y="630" width="155" height="30" as="geometry" />
        </mxCell>
        <mxCell id="0Tcj5YBdf_HCPR3OIGFo-61" value="" style="shape=waypoint;sketch=0;fillStyle=solid;size=6;pointerEvents=1;points=[];fillColor=none;resizable=0;rotatable=0;perimeter=centerPerimeter;snapToPoint=1;strokeColor=#000000;strokeWidth=2;fontFamily=Inconsolata;" parent="1" vertex="1">
          <mxGeometry x="70" y="30" width="20" height="20" as="geometry" />
        </mxCell>
        <mxCell id="0Tcj5YBdf_HCPR3OIGFo-62" value="(0, 0)" style="text;html=1;strokeColor=none;fillColor=none;align=left;verticalAlign=middle;whiteSpace=wrap;rounded=0;fontFamily=Inconsolata;" parent="1" vertex="1">
          <mxGeometry x="70" y="10" width="85" height="30" as="geometry" />
        </mxCell>
        <mxCell id="0Tcj5YBdf_HCPR3OIGFo-64" value="" style="shape=curlyBracket;whiteSpace=wrap;html=1;rounded=1;flipH=1;labelPosition=right;verticalLabelPosition=middle;align=left;verticalAlign=middle;fontFamily=Inconsolata;" parent="1" vertex="1">
          <mxGeometry x="1110" y="40" width="20" height="440" as="geometry" />
        </mxCell>
        <mxCell id="0Tcj5YBdf_HCPR3OIGFo-65" value="screen_height" style="text;html=1;strokeColor=none;fillColor=none;align=center;verticalAlign=middle;whiteSpace=wrap;rounded=0;fontFamily=Inconsolata;rotation=270;" parent="1" vertex="1">
          <mxGeometry x="1070" y="240" width="150" height="30" as="geometry" />
        </mxCell>
        <mxCell id="1FA002rf737X_UtI6xj9-2" value="in_game_exp_tooltip_height" style="text;html=1;strokeColor=none;fillColor=none;align=left;verticalAlign=top;whiteSpace=wrap;rounded=0;fontFamily=Inconsolata;rotation=270;" parent="1" vertex="1">
          <mxGeometry x="990" y="380" width="150" height="30" as="geometry" />
        </mxCell>
        <mxCell id="1FA002rf737X_UtI6xj9-3" value="&lt;i&gt;control_region&lt;/i&gt;&amp;nbsp;&lt;span style=&quot;&quot;&gt;&lt;span style=&quot;&quot;&gt;&amp;nbsp;&amp;nbsp;&amp;nbsp;&amp;nbsp;&lt;/span&gt;&lt;/span&gt;&lt;span style=&quot;&quot;&gt;&lt;span style=&quot;&quot;&gt;&amp;nbsp;&amp;nbsp;&amp;nbsp;&amp;nbsp;&lt;span style=&quot;&quot;&gt;&lt;span style=&quot;&quot;&gt;&amp;nbsp;&amp;nbsp;&amp;nbsp;&amp;nbsp;&lt;/span&gt;&lt;/span&gt;&lt;span style=&quot;&quot;&gt;&lt;span style=&quot;&quot;&gt;&amp;nbsp;&lt;span style=&quot;white-space: pre;&quot;&gt;&#x9;&lt;/span&gt;&lt;/span&gt;&lt;/span&gt;&lt;/span&gt;&lt;/span&gt;- Region in game that causes&amp;nbsp;&lt;span style=&quot;&quot;&gt;&lt;span style=&quot;&quot;&gt;&amp;nbsp;&amp;nbsp;&amp;nbsp;&amp;nbsp;&lt;/span&gt;&lt;/span&gt;&lt;span style=&quot;&quot;&gt;&lt;span style=&quot;&quot;&gt;&amp;nbsp;&amp;nbsp;&amp;nbsp;&amp;nbsp;&lt;/span&gt;&lt;/span&gt;&lt;span style=&quot;&quot;&gt;&lt;span style=&quot;&quot;&gt;&amp;nbsp;&amp;nbsp;&amp;nbsp;&amp;nbsp;&lt;/span&gt;&lt;/span&gt;&amp;nbsp; &lt;span style=&quot;&quot;&gt;&lt;span style=&quot;&quot;&gt;&amp;nbsp;&amp;nbsp;&amp;nbsp;&amp;nbsp;&lt;/span&gt;&lt;/span&gt;&lt;span style=&quot;&quot;&gt;&lt;span style=&quot;&quot;&gt;&amp;nbsp;&amp;nbsp;&amp;nbsp;&amp;nbsp;&lt;/span&gt;&lt;span style=&quot;&quot;&gt;&lt;span style=&quot;&quot;&gt;&amp;nbsp;&amp;nbsp;&amp;nbsp;&amp;nbsp;&lt;/span&gt;&lt;/span&gt; &lt;/span&gt;&amp;nbsp;&lt;span style=&quot;&quot;&gt;&lt;span style=&quot;&quot;&gt;&amp;nbsp;&amp;nbsp;&amp;nbsp;&amp;nbsp;&lt;/span&gt;&lt;/span&gt;&lt;span style=&quot;&quot;&gt;&lt;span style=&quot;&quot;&gt;&amp;nbsp;&amp;nbsp;&amp;nbsp;&amp;nbsp;&lt;/span&gt;&lt;/span&gt;&lt;span style=&quot;&quot;&gt;&lt;span style=&quot;&quot;&gt;&amp;nbsp;&amp;nbsp;&amp;nbsp;&amp;nbsp;&lt;/span&gt;&lt;/span&gt;&amp;nbsp;&amp;nbsp;&lt;span style=&quot;&quot;&gt;&lt;span style=&quot;white-space: pre;&quot;&gt;&amp;nbsp;&amp;nbsp;&amp;nbsp;&amp;nbsp;&lt;/span&gt;&lt;/span&gt;&lt;span style=&quot;&quot;&gt;&lt;span style=&quot;white-space: pre;&quot;&gt;&amp;nbsp;&amp;nbsp;&lt;/span&gt;&lt;/span&gt;&lt;i&gt;in_game_exp_tooltip&lt;/i&gt; to appear on hover.&lt;br&gt;&lt;i&gt;in_game_exp_tooltip_x_offset&amp;nbsp;&lt;span style=&quot;white-space: pre;&quot;&gt;&#x9;&lt;/span&gt;&lt;/i&gt;- Offset from &lt;i&gt;cursor&lt;/i&gt;&#39;s position on X axis &lt;span style=&quot;&quot;&gt;&lt;span style=&quot;white-space: pre;&quot;&gt;&amp;nbsp;&amp;nbsp;&amp;nbsp;&amp;nbsp;&lt;/span&gt;&lt;/span&gt;&lt;span style=&quot;&quot;&gt;&lt;span style=&quot;white-space: pre;&quot;&gt;&amp;nbsp;&amp;nbsp;&amp;nbsp;&amp;nbsp;&lt;/span&gt;&lt;/span&gt;&lt;span style=&quot;&quot;&gt;&lt;span style=&quot;white-space: pre;&quot;&gt;&amp;nbsp;&amp;nbsp;&amp;nbsp;&amp;nbsp;&lt;/span&gt;&lt;/span&gt;&lt;span style=&quot;&quot;&gt;&lt;span style=&quot;white-space: pre;&quot;&gt;&amp;nbsp;&amp;nbsp;&amp;nbsp;&amp;nbsp;&lt;/span&gt;&lt;/span&gt;&lt;span style=&quot;&quot;&gt;&lt;span style=&quot;white-space: pre;&quot;&gt;&amp;nbsp;&amp;nbsp;&amp;nbsp;&amp;nbsp;&lt;span style=&quot;white-space: pre;&quot;&gt;&#x9;&lt;span style=&quot;white-space: pre;&quot;&gt;&#x9;&lt;/span&gt; &lt;/span&gt; &lt;/span&gt;&lt;/span&gt;to&amp;nbsp;&lt;i style=&quot;border-color: var(--border-color);&quot;&gt;in_game_exp_tooltip&lt;/i&gt;&amp;nbsp;position.&lt;br&gt;&lt;br&gt;Note: Coordinates of &lt;i&gt;in_game_exp_tooltip&lt;/i&gt; should be enough to fit&amp;nbsp;&lt;i style=&quot;border-color: var(--border-color);&quot;&gt;in_game_exp_tooltip&lt;/i&gt;&amp;nbsp;tooltip in any situation. They might be a little bigger than the actual tooltip, but not too big, since AI searches this area for text." style="text;html=1;strokeColor=none;fillColor=none;align=left;verticalAlign=bottom;whiteSpace=wrap;rounded=0;fontFamily=Inconsolata;" parent="1" vertex="1">
          <mxGeometry x="10" y="690" width="510" height="130" as="geometry" />
        </mxCell>
        <mxCell id="1FA002rf737X_UtI6xj9-4" value="control_region" style="text;html=1;strokeColor=none;fillColor=none;align=left;verticalAlign=top;whiteSpace=wrap;rounded=0;fontFamily=Inconsolata;fontStyle=2" parent="1" vertex="1">
          <mxGeometry x="240" y="340" width="146" height="30" as="geometry" />
        </mxCell>
      </root>
    </mxGraphModel>
  </diagram>
</mxfile>
